<mxfile host="Electron" modified="2024-05-06T20:43:11.116Z" agent="Mozilla/5.0 (X11; Linux x86_64) AppleWebKit/537.36 (KHTML, like Gecko) draw.io/24.2.5 Chrome/120.0.6099.109 Electron/28.1.0 Safari/537.36" etag="PzVEKZIvOLOhgT3E07WD" version="24.2.5" type="device">
  <diagram name="Page-1" id="l0MXM9vD9K8zOjjMg7in">
    <mxGraphModel dx="1135" dy="703" grid="1" gridSize="10" guides="1" tooltips="1" connect="1" arrows="1" fold="1" page="1" pageScale="1" pageWidth="850" pageHeight="1100" math="0" shadow="0">
      <root>
        <mxCell id="0" />
        <mxCell id="1" parent="0" />
        <mxCell id="9x6aTGWP-mcX0B8j0t4h-8" value="" style="edgeStyle=orthogonalEdgeStyle;rounded=0;orthogonalLoop=1;jettySize=auto;html=1;" edge="1" parent="1" source="9x6aTGWP-mcX0B8j0t4h-1">
          <mxGeometry relative="1" as="geometry">
            <mxPoint x="430" y="470" as="targetPoint" />
          </mxGeometry>
        </mxCell>
        <mxCell id="9x6aTGWP-mcX0B8j0t4h-1" value="Detect square" style="rounded=1;whiteSpace=wrap;html=1;fontSize=15;fontStyle=1" vertex="1" parent="1">
          <mxGeometry x="370" y="390" width="120" height="60" as="geometry" />
        </mxCell>
        <mxCell id="9x6aTGWP-mcX0B8j0t4h-9" style="edgeStyle=orthogonalEdgeStyle;rounded=0;orthogonalLoop=1;jettySize=auto;html=1;entryX=0.5;entryY=0;entryDx=0;entryDy=0;" edge="1" parent="1" source="9x6aTGWP-mcX0B8j0t4h-3" target="9x6aTGWP-mcX0B8j0t4h-4">
          <mxGeometry relative="1" as="geometry" />
        </mxCell>
        <mxCell id="9x6aTGWP-mcX0B8j0t4h-3" value="Detect concentric circles" style="rounded=1;whiteSpace=wrap;html=1;fontSize=15;fontStyle=1" vertex="1" parent="1">
          <mxGeometry x="370" y="470" width="120" height="60" as="geometry" />
        </mxCell>
        <mxCell id="9x6aTGWP-mcX0B8j0t4h-10" style="edgeStyle=orthogonalEdgeStyle;rounded=0;orthogonalLoop=1;jettySize=auto;html=1;entryX=0.5;entryY=0;entryDx=0;entryDy=0;" edge="1" parent="1" source="9x6aTGWP-mcX0B8j0t4h-4" target="9x6aTGWP-mcX0B8j0t4h-5">
          <mxGeometry relative="1" as="geometry" />
        </mxCell>
        <mxCell id="9x6aTGWP-mcX0B8j0t4h-4" value="Detect inner circle" style="rounded=1;whiteSpace=wrap;html=1;fontSize=15;fontStyle=1" vertex="1" parent="1">
          <mxGeometry x="370" y="550" width="120" height="60" as="geometry" />
        </mxCell>
        <mxCell id="9x6aTGWP-mcX0B8j0t4h-11" style="edgeStyle=orthogonalEdgeStyle;rounded=0;orthogonalLoop=1;jettySize=auto;html=1;entryX=0.5;entryY=0;entryDx=0;entryDy=0;" edge="1" parent="1" source="9x6aTGWP-mcX0B8j0t4h-5" target="9x6aTGWP-mcX0B8j0t4h-6">
          <mxGeometry relative="1" as="geometry" />
        </mxCell>
        <mxCell id="9x6aTGWP-mcX0B8j0t4h-5" value="Detect tins" style="rounded=1;whiteSpace=wrap;html=1;fontSize=15;fontStyle=1" vertex="1" parent="1">
          <mxGeometry x="370" y="630" width="120" height="60" as="geometry" />
        </mxCell>
        <mxCell id="9x6aTGWP-mcX0B8j0t4h-6" value="Land" style="rounded=1;whiteSpace=wrap;html=1;fontSize=15;fontStyle=1" vertex="1" parent="1">
          <mxGeometry x="370" y="710" width="120" height="60" as="geometry" />
        </mxCell>
        <mxCell id="9x6aTGWP-mcX0B8j0t4h-7" style="edgeStyle=orthogonalEdgeStyle;rounded=0;orthogonalLoop=1;jettySize=auto;html=1;exitX=0.5;exitY=1;exitDx=0;exitDy=0;" edge="1" parent="1" source="9x6aTGWP-mcX0B8j0t4h-4" target="9x6aTGWP-mcX0B8j0t4h-4">
          <mxGeometry relative="1" as="geometry" />
        </mxCell>
      </root>
    </mxGraphModel>
  </diagram>
</mxfile>
